<svg width="30" height="30" viewBox="0 0 30 30" fill="none" xmlns="http://www.w3.org/2000/svg">
<path d="M14.9999 16.05C16.7396 16.05 18.1499 14.6397 18.1499 12.9C18.1499 11.1603 16.7396 9.75 14.9999 9.75C13.2602 9.75 11.8499 11.1603 11.8499 12.9C11.8499 14.6397 13.2602 16.05 14.9999 16.05Z" stroke="#369FFF" stroke-width="2" stroke-linecap="round" stroke-linejoin="round"/>
<path d="M14.9999 4.5C12.772 4.5 10.6355 5.385 9.06016 6.9603C7.48485 8.53561 6.59985 10.6722 6.59985 12.9C6.59985 14.8866 7.02195 16.1865 8.17485 17.625L14.9999 25.5L21.8248 17.625C22.9777 16.1865 23.3998 14.8866 23.3998 12.9C23.3998 10.6722 22.5149 8.53561 20.9395 6.9603C19.3642 5.385 17.2277 4.5 14.9999 4.5V4.5Z" stroke="#369FFF" stroke-width="2" stroke-linecap="round" stroke-linejoin="round"/>
</svg>
