<svg width="16" height="16" viewBox="0 0 16 16" fill="none" xmlns="http://www.w3.org/2000/svg">
<path d="M8.00001 8.56C8.92785 8.56 9.68001 7.80784 9.68001 6.88C9.68001 5.95216 8.92785 5.2 8.00001 5.2C7.07217 5.2 6.32001 5.95216 6.32001 6.88C6.32001 7.80784 7.07217 8.56 8.00001 8.56Z" stroke="#369FFF" stroke-width="1.5" stroke-linecap="round" stroke-linejoin="round"/>
<path d="M8.00002 2.39999C6.81185 2.39999 5.67234 2.87199 4.83218 3.71216C3.99202 4.55232 3.52002 5.69182 3.52002 6.87999C3.52002 7.93951 3.74514 8.63279 4.36002 9.39999L8.00002 13.6L11.64 9.39999C12.2549 8.63279 12.48 7.93951 12.48 6.87999C12.48 5.69182 12.008 4.55232 11.1679 3.71216C10.3277 2.87199 9.18819 2.39999 8.00002 2.39999V2.39999Z" stroke="#369FFF" stroke-width="1.5" stroke-linecap="round" stroke-linejoin="round"/>
</svg>
