<svg width="34" height="34" viewBox="0 0 34 34" fill="none" xmlns="http://www.w3.org/2000/svg">
<g clip-path="url(#clip0)">
<path d="M33.2916 9.21828C33.099 8.53152 32.724 7.90977 32.2064 7.41911C31.6741 6.91336 31.0218 6.55159 30.3109 6.36794C27.6504 5.66669 16.9914 5.66669 16.9914 5.66669C12.5478 5.61614 8.10526 5.8385 3.6889 6.33253C2.978 6.52974 2.32686 6.8996 1.7934 7.40919C1.26923 7.91353 0.889564 8.53544 0.691231 9.21686C0.214796 11.7835 -0.0166885 14.3896 -0.00010222 17C-0.0171022 19.6081 0.213814 22.2134 0.691231 24.7832C0.885314 25.4618 1.26356 26.0809 1.78915 26.5809C2.31473 27.081 2.96923 27.4423 3.6889 27.6335C6.38481 28.3334 16.9914 28.3334 16.9914 28.3334C21.4407 28.384 25.8889 28.1616 30.3109 27.6675C31.0218 27.4839 31.6741 27.1221 32.2064 26.6164C32.7306 26.1163 33.1031 25.4944 33.2901 24.8172C33.779 22.2515 34.0167 19.6444 33.9999 17.0326C34.0367 14.4098 33.7993 11.7903 33.2916 9.21686V9.21828ZM13.6027 21.8507V12.1508L22.4711 17.0014L13.6027 21.8507Z" fill="#A7A7A7"/>
</g>
<defs>
<clipPath id="clip0">
<rect width="34" height="34" fill="white"/>
</clipPath>
</defs>
</svg>
