<svg width="22" height="22" viewBox="0 0 22 22" fill="none" xmlns="http://www.w3.org/2000/svg">
<path d="M18.7 4.12375H15.4V2.9328C15.4 2.30108 15.1682 1.69524 14.7556 1.24855C14.3431 0.801853 13.7835 0.550903 13.2 0.550903H8.8C8.21652 0.550903 7.65695 0.801853 7.24437 1.24855C6.83179 1.69524 6.6 2.30108 6.6 2.9328V4.12375H3.3C2.42479 4.12375 1.58542 4.50018 0.966548 5.17022C0.347678 5.84026 0 6.74903 0 7.6966V18.4152C0 19.3627 0.347678 20.2715 0.966548 20.9415C1.58542 21.6116 2.42479 21.988 3.3 21.988H18.7C19.5752 21.988 20.4146 21.6116 21.0335 20.9415C21.6523 20.2715 22 19.3627 22 18.4152V7.6966C22 6.74903 21.6523 5.84026 21.0335 5.17022C20.4146 4.50018 19.5752 4.12375 18.7 4.12375ZM8.8 2.9328H13.2V4.12375H8.8V2.9328ZM19.8 18.4152C19.8 18.731 19.6841 19.0339 19.4778 19.2573C19.2715 19.4806 18.9917 19.6061 18.7 19.6061H3.3C3.00826 19.6061 2.72847 19.4806 2.52218 19.2573C2.31589 19.0339 2.2 18.731 2.2 18.4152V11.7339L7.348 13.6514C7.4648 13.6685 7.5832 13.6685 7.7 13.6514H14.3C14.4193 13.649 14.5377 13.6289 14.652 13.5918L19.8 11.7339V18.4152ZM19.8 9.22102L14.124 11.2695H7.876L2.2 9.22102V7.6966C2.2 7.38074 2.31589 7.07782 2.52218 6.85448C2.72847 6.63113 3.00826 6.50565 3.3 6.50565H18.7C18.9917 6.50565 19.2715 6.63113 19.4778 6.85448C19.6841 7.07782 19.8 7.38074 19.8 7.6966V9.22102Z" fill="white"/>
</svg>
