<svg width="28" height="24" viewBox="0 0 28 24" fill="none" xmlns="http://www.w3.org/2000/svg">
<path d="M23.8 4.63742H19.6V3.35914C19.6 2.6811 19.305 2.03083 18.7799 1.55138C18.2548 1.07193 17.5426 0.802582 16.8 0.802582H11.2C10.4574 0.802582 9.7452 1.07193 9.2201 1.55138C8.695 2.03083 8.4 2.6811 8.4 3.35914V4.63742H4.2C3.08609 4.63742 2.0178 5.04145 1.23015 5.76062C0.442499 6.47979 0 7.4552 0 8.47226V19.9768C0 20.9939 0.442499 21.9693 1.23015 22.6884C2.0178 23.4076 3.08609 23.8116 4.2 23.8116H23.8C24.9139 23.8116 25.9822 23.4076 26.7698 22.6884C27.5575 21.9693 28 20.9939 28 19.9768V8.47226C28 7.4552 27.5575 6.47979 26.7698 5.76062C25.9822 5.04145 24.9139 4.63742 23.8 4.63742ZM11.2 3.35914H16.8V4.63742H11.2V3.35914ZM25.2 19.9768C25.2 20.3158 25.0525 20.6409 24.7899 20.8807C24.5274 21.1204 24.1713 21.2551 23.8 21.2551H4.2C3.8287 21.2551 3.4726 21.1204 3.21005 20.8807C2.9475 20.6409 2.8 20.3158 2.8 19.9768V12.8056L9.352 14.8637C9.50065 14.8821 9.65135 14.8821 9.8 14.8637H18.2C18.3518 14.8611 18.5026 14.8396 18.648 14.7998L25.2 12.8056V19.9768ZM25.2 10.1085L17.976 12.3071H10.024L2.8 10.1085V8.47226C2.8 8.13324 2.9475 7.80811 3.21005 7.56838C3.4726 7.32866 3.8287 7.19398 4.2 7.19398H23.8C24.1713 7.19398 24.5274 7.32866 24.7899 7.56838C25.0525 7.80811 25.2 8.13324 25.2 8.47226V10.1085Z" fill="#369FFF"/>
</svg>
