<svg width="20" height="20" viewBox="0 0 20 20" fill="none" xmlns="http://www.w3.org/2000/svg">
<path fill-rule="evenodd" clip-rule="evenodd" d="M6.22075 0.888374C7.19825 0.843374 7.50992 0.833374 9.99992 0.833374C12.4899 0.833374 12.8016 0.844207 13.7783 0.888374C14.7549 0.932541 15.4216 1.08837 16.0049 1.31421C16.6158 1.54504 17.1699 1.90587 17.6283 2.37254C18.0949 2.83004 18.4549 3.38337 18.6849 3.99504C18.9116 4.57837 19.0666 5.24504 19.1116 6.22004C19.1566 7.19921 19.1666 7.51087 19.1666 10C19.1666 12.49 19.1558 12.8017 19.1116 13.7792C19.0674 14.7542 18.9116 15.4209 18.6849 16.0042C18.4549 16.616 18.0943 17.1702 17.6283 17.6284C17.1699 18.095 16.6158 18.455 16.0049 18.685C15.4216 18.9117 14.7549 19.0667 13.7799 19.1117C12.8016 19.1567 12.4899 19.1667 9.99992 19.1667C7.50992 19.1667 7.19825 19.1559 6.22075 19.1117C5.24575 19.0675 4.57909 18.9117 3.99575 18.685C3.38402 18.455 2.82977 18.0944 2.37159 17.6284C1.90524 17.1706 1.54435 16.6166 1.31409 16.005C1.08825 15.4217 0.933252 14.755 0.888252 13.78C0.843252 12.8009 0.833252 12.4892 0.833252 10C0.833252 7.51004 0.844085 7.19837 0.888252 6.22171C0.932419 5.24504 1.08825 4.57837 1.31409 3.99504C1.54469 3.38344 1.90585 2.82947 2.37242 2.37171C2.82995 1.90546 3.38365 1.54458 3.99492 1.31421C4.57825 1.08837 5.24492 0.933374 6.21992 0.888374H6.22075ZM13.7041 2.53837C12.7374 2.49421 12.4474 2.48504 9.99992 2.48504C7.55242 2.48504 7.26242 2.49421 6.29575 2.53837C5.40159 2.57921 4.91659 2.72837 4.59325 2.85421C4.16575 3.02087 3.85992 3.21837 3.53909 3.53921C3.23496 3.83508 3.0009 4.19528 2.85409 4.59337C2.72825 4.91671 2.57909 5.40171 2.53825 6.29587C2.49409 7.26254 2.48492 7.55254 2.48492 10C2.48492 12.4475 2.49409 12.7375 2.53825 13.7042C2.57909 14.5984 2.72825 15.0834 2.85409 15.4067C3.00075 15.8042 3.23492 16.165 3.53909 16.4609C3.83492 16.765 4.19575 16.9992 4.59325 17.1459C4.91659 17.2717 5.40159 17.4209 6.29575 17.4617C7.26242 17.5059 7.55159 17.515 9.99992 17.515C12.4483 17.515 12.7374 17.5059 13.7041 17.4617C14.5983 17.4209 15.0833 17.2717 15.4066 17.1459C15.8341 16.9792 16.1399 16.7817 16.4608 16.4609C16.7649 16.165 16.9991 15.8042 17.1458 15.4067C17.2716 15.0834 17.4208 14.5984 17.4616 13.7042C17.5058 12.7375 17.5149 12.4475 17.5149 10C17.5149 7.55254 17.5058 7.26254 17.4616 6.29587C17.4208 5.40171 17.2716 4.91671 17.1458 4.59337C16.9791 4.16587 16.7816 3.86004 16.4608 3.53921C16.1649 3.2351 15.8047 3.00105 15.4066 2.85421C15.0833 2.72837 14.5983 2.57921 13.7041 2.53837ZM8.82909 12.8259C9.48297 13.0981 10.2111 13.1348 10.889 12.9298C11.567 12.7248 12.1527 12.2908 12.5463 11.7019C12.9398 11.113 13.1166 10.4058 13.0466 9.70096C12.9766 8.99616 12.6641 8.33752 12.1624 7.83754C11.8426 7.51794 11.4559 7.27322 11.0302 7.121C10.6045 6.96877 10.1503 6.91284 9.70033 6.95722C9.25039 7.0016 8.81588 7.14519 8.42809 7.37765C8.0403 7.61011 7.70887 7.92566 7.45767 8.30158C7.20647 8.67751 7.04174 9.10445 6.97535 9.55167C6.90895 9.9989 6.94254 10.4553 7.0737 10.888C7.20486 11.3207 7.43032 11.7189 7.73385 12.054C8.03739 12.3891 8.41144 12.6527 8.82909 12.8259ZM6.66825 6.66837C7.10577 6.23085 7.62519 5.88379 8.19683 5.64701C8.76848 5.41022 9.38117 5.28835 9.99992 5.28835C10.6187 5.28835 11.2314 5.41022 11.803 5.64701C12.3747 5.88379 12.8941 6.23085 13.3316 6.66837C13.7691 7.10589 14.1162 7.62531 14.353 8.19696C14.5897 8.7686 14.7116 9.38129 14.7116 10C14.7116 10.6188 14.5897 11.2315 14.353 11.8031C14.1162 12.3748 13.7691 12.8942 13.3316 13.3317C12.448 14.2153 11.2495 14.7117 9.99992 14.7117C8.7503 14.7117 7.55187 14.2153 6.66825 13.3317C5.78464 12.4481 5.28823 11.2497 5.28823 10C5.28823 8.75042 5.78464 7.55199 6.66825 6.66837ZM15.7566 5.99004C15.865 5.88776 15.9518 5.76477 16.0118 5.62835C16.0719 5.49193 16.1039 5.34485 16.1061 5.19582C16.1083 5.04678 16.0805 4.89883 16.0245 4.76072C15.9685 4.6226 15.8853 4.49713 15.7799 4.39174C15.6745 4.28635 15.549 4.20317 15.4109 4.14714C15.2728 4.09111 15.1248 4.06335 14.9758 4.06553C14.8268 4.0677 14.6797 4.09975 14.5433 4.15979C14.4069 4.21982 14.2839 4.30662 14.1816 4.41504C13.9827 4.6259 13.8738 4.90597 13.878 5.19582C13.8822 5.48566 13.9992 5.76244 14.2042 5.96741C14.4092 6.17238 14.686 6.2894 14.9758 6.29362C15.2657 6.29785 15.5457 6.18895 15.7566 5.99004Z" fill="#369FFF"/>
</svg>
