<svg width="173" height="28" viewBox="0 0 173 28" fill="none" xmlns="http://www.w3.org/2000/svg">
<path d="M51.91 4H54.94V23.66H52.16L40.73 8.66C40.84 9.8 40.95 10.94 41.05 12.07C41.15 13.2 41.21 14.34 41.21 15.48V23.65H38.17V4H40.9L52.33 19.31C52.16 17.94 52.05 16.47 51.99 14.89C51.94 13.31 51.91 11.83 51.91 10.47V4Z" fill="#369FFF"/>
<path d="M72.39 21.72H72.36C71.76 22.3 70.94 22.82 69.89 23.27C68.84 23.72 67.75 23.94 66.6 23.94C65.06 23.94 63.71 23.61 62.54 22.97C61.37 22.32 60.45 21.44 59.8 20.3C59.14 19.17 58.82 17.88 58.82 16.44C58.82 14.79 59.17 13.38 59.86 12.21C60.55 11.04 61.47 10.14 62.61 9.52002C63.75 8.89002 65 8.58002 66.35 8.58002C67.58 8.58002 68.71 8.88002 69.72 9.49002C70.73 10.1 71.54 10.94 72.13 12C72.73 13.07 73.03 14.32 73.03 15.74L73 16.97H61.71C61.88 18.3 62.43 19.35 63.35 20.13C64.28 20.91 65.45 21.3 66.88 21.3C67.91 21.3 68.74 21.11 69.38 20.72C70.02 20.34 70.54 19.97 70.95 19.61L72.39 21.72ZM66.35 11.25C65.24 11.25 64.28 11.51 63.46 12.02C62.63 12.53 62.09 13.42 61.83 14.68H70.09V14.48C70.03 13.84 69.82 13.28 69.46 12.8C69.09 12.31 68.64 11.93 68.1 11.66C67.55 11.38 66.97 11.25 66.35 11.25Z" fill="#369FFF"/>
<path d="M74.52 23.66L80.2 16.27L74.49 8.91998H78.15L82.14 14.11L85.51 8.91998H88.93L83.71 16.19L89.44 23.66H85.9L81.85 18.41L77.92 23.69L74.52 23.66Z" fill="#369FFF"/>
<path d="M96.6 23.66H93.71V11.72H90.65V8.91999H93.71V5.14999H96.6V8.91999H100.03V11.72H96.6V23.66Z" fill="#369FFF"/>
<path d="M2.8 2.56L8.85 12.41L15 2.56H17.64V21.05H14.79V13.47C14.79 12.36 14.81 11.31 14.86 10.32C14.91 9.32 14.98 8.33 15.09 7.35L9.65 15.75H7.9L2.59 7.37C2.7 8.36 2.76 9.34 2.8 10.33C2.83 11.32 2.85 12.36 2.85 13.47V21.05H0V2.56H2.8Z" fill="#369FFF"/>
<path d="M24.46 27.13L26.73 21.93L26.81 21.74L20.36 7.19H23.53L27.86 17.39C27.92 17.49 27.97 17.63 28.02 17.79C28.08 17.95 28.13 18.12 28.21 18.32C28.28 18.13 28.34 17.94 28.41 17.75C28.47 17.56 28.54 17.38 28.61 17.21L32.23 7.2H35.45L29.74 21.07L27.39 27.15H24.46V27.13Z" fill="#369FFF"/>
<path d="M124.7 23.69L124.64 11.3L118.63 21.39H115.68L109.71 11.64V23.69H103.6V0.309998H109.04L117.26 13.81L125.27 0.309998H130.72L130.78 23.69H124.7Z" fill="#231F20"/>
<path d="M172.34 0.309998V23.69H166.89L156.57 11.23V23.69H150.09V0.309998H155.54L165.86 12.77V0.309998H172.34Z" fill="#231F20"/>
<path d="M143.03 23.69H137.86C134.69 23.69 132.12 21.12 132.12 17.95V0.419983H148.78V17.95C148.78 21.12 146.2 23.69 143.03 23.69Z" fill="#231F20"/>
<path d="M139.85 2.35L137.44 17.64C137.42 17.76 137.46 17.87 137.54 17.97L140.04 20.96C140.31 21.28 140.92 21.27 141.17 20.94L143.38 18.01C143.45 17.92 143.48 17.82 143.46 17.71L141.58 2.37C141.55 2.11 141.26 1.91 140.92 1.91H140.51C140.17 1.91 139.89 2.1 139.85 2.35Z" fill="white"/>
<path d="M141.41 2.3H140.09C139.89 2.3 139.7 2.2 139.65 2.05L139.04 0.46C138.94 0.23 139.16 0 139.47 0H142.13C142.45 0 142.67 0.24 142.57 0.47L141.84 2.06C141.78 2.2 141.61 2.3 141.41 2.3Z" fill="white"/>
</svg>
