<svg width="178" height="30" viewBox="0 0 178 30" fill="none" xmlns="http://www.w3.org/2000/svg">
<path d="M5.4375 0.25L12 17.6875L18.5469 0.25H23.6562V23H19.7188V15.5L20.1094 5.46875L13.3906 23H10.5625L3.85938 5.48438L4.25 15.5V23H0.3125V0.25H5.4375ZM33.8906 17.5625L37.3281 6.09375H41.375L34.6562 25.5625C33.625 28.4062 31.875 29.8281 29.4062 29.8281C28.8542 29.8281 28.2448 29.7344 27.5781 29.5469V26.6094L28.2969 26.6562C29.2552 26.6562 29.974 26.4792 30.4531 26.125C30.9427 25.7812 31.3281 25.1979 31.6094 24.375L32.1562 22.9219L26.2188 6.09375H30.3125L33.8906 17.5625ZM61.9844 23H58.0312L47.8906 6.85938V23H43.9375V0.25H47.8906L58.0625 16.4531V0.25H61.9844V23ZM73.7344 23.3125C71.3281 23.3125 69.375 22.5573 67.875 21.0469C66.3854 19.526 65.6406 17.5052 65.6406 14.9844V14.5156C65.6406 12.8281 65.9635 11.3229 66.6094 10C67.2656 8.66667 68.1823 7.63021 69.3594 6.89062C70.5365 6.15104 71.849 5.78125 73.2969 5.78125C75.599 5.78125 77.375 6.51562 78.625 7.98438C79.8854 9.45312 80.5156 11.5312 80.5156 14.2188V15.75H69.4688C69.5833 17.1458 70.0469 18.25 70.8594 19.0625C71.6823 19.875 72.7135 20.2812 73.9531 20.2812C75.6927 20.2812 77.1094 19.5781 78.2031 18.1719L80.25 20.125C79.5729 21.1354 78.6667 21.9219 77.5312 22.4844C76.4062 23.0365 75.1406 23.3125 73.7344 23.3125ZM73.2812 8.82812C72.2396 8.82812 71.3958 9.19271 70.75 9.92188C70.1146 10.651 69.7083 11.6667 69.5312 12.9688H76.7656V12.6875C76.6823 11.4167 76.3438 10.4583 75.75 9.8125C75.1562 9.15625 74.3333 8.82812 73.2812 8.82812ZM89.5469 11.6562L92.7656 6.09375H96.9844L91.8125 14.4219L97.1562 23H92.9688L89.5938 17.2188L86.2344 23H82.0156L87.3594 14.4219L82.2031 6.09375H86.3906L89.5469 11.6562ZM104.328 1.98438V6.09375H107.312V8.90625H104.328V18.3438C104.328 18.9896 104.453 19.4583 104.703 19.75C104.964 20.0312 105.422 20.1719 106.078 20.1719C106.516 20.1719 106.958 20.1198 107.406 20.0156V22.9531C106.542 23.1927 105.708 23.3125 104.906 23.3125C101.99 23.3125 100.531 21.7031 100.531 18.4844V8.90625H97.75V6.09375H100.531V1.98438H104.328ZM115.719 0.25L122.281 17.6875L128.828 0.25H133.938V23H130V15.5L130.391 5.46875L123.672 23H120.844L114.141 5.48438L114.531 15.5V23H110.594V0.25H115.719ZM155.266 0.25V15.4531C155.266 17.8698 154.49 19.7865 152.938 21.2031C151.396 22.6094 149.339 23.3125 146.766 23.3125C144.161 23.3125 142.094 22.6198 140.562 21.2344C139.031 19.8385 138.266 17.9062 138.266 15.4375V0.25H142.203V15.4688C142.203 16.9896 142.589 18.151 143.359 18.9531C144.13 19.7552 145.266 20.1562 146.766 20.1562C149.807 20.1562 151.328 18.5521 151.328 15.3438V0.25H155.266ZM177.547 23H173.594L163.453 6.85938V23H159.5V0.25H163.453L173.625 16.4531V0.25H177.547V23Z" fill="#369FFF"/>
</svg>
