<svg width="20" height="20" viewBox="0 0 20 20" fill="none" xmlns="http://www.w3.org/2000/svg">
<path d="M13.6334 11.6666C13.7001 11.1166 13.7501 10.5666 13.7501 9.99996C13.7501 9.43329 13.7001 8.88329 13.6334 8.33329H16.4501C16.5834 8.86663 16.6667 9.42496 16.6667 9.99996C16.6667 10.575 16.5834 11.1333 16.4501 11.6666H13.6334ZM12.1584 16.3C12.6584 15.375 13.0417 14.375 13.3084 13.3333H15.7667C14.9594 14.7235 13.6785 15.7766 12.1584 16.3ZM11.9501 11.6666H8.05008C7.96675 11.1166 7.91675 10.5666 7.91675 9.99996C7.91675 9.43329 7.96675 8.87496 8.05008 8.33329H11.9501C12.0251 8.87496 12.0834 9.43329 12.0834 9.99996C12.0834 10.5666 12.0251 11.1166 11.9501 11.6666ZM10.0001 16.6333C9.30841 15.6333 8.75008 14.525 8.40842 13.3333H11.5917C11.2501 14.525 10.6917 15.6333 10.0001 16.6333ZM6.66675 6.66663H4.23341C5.03246 5.27264 6.31241 4.21786 7.83341 3.69996C7.33341 4.62496 6.95842 5.62496 6.66675 6.66663ZM4.23341 13.3333H6.66675C6.95842 14.375 7.33341 15.375 7.83341 16.3C6.3156 15.7763 5.03745 14.7231 4.23341 13.3333ZM3.55008 11.6666C3.41675 11.1333 3.33341 10.575 3.33341 9.99996C3.33341 9.42496 3.41675 8.86663 3.55008 8.33329H6.36675C6.30008 8.88329 6.25008 9.43329 6.25008 9.99996C6.25008 10.5666 6.30008 11.1166 6.36675 11.6666H3.55008ZM10.0001 3.35829C10.6917 4.35829 11.2501 5.47496 11.5917 6.66663H8.40842C8.75008 5.47496 9.30841 4.35829 10.0001 3.35829ZM15.7667 6.66663H13.3084C13.0476 5.63451 12.6614 4.63821 12.1584 3.69996C13.6917 4.22496 14.9667 5.28329 15.7667 6.66663ZM10.0001 1.66663C5.39175 1.66663 1.66675 5.41663 1.66675 9.99996C1.66675 12.2101 2.54472 14.3297 4.10752 15.8925C4.88135 16.6663 5.80001 17.2802 6.81105 17.699C7.8221 18.1177 8.90573 18.3333 10.0001 18.3333C12.2102 18.3333 14.3298 17.4553 15.8926 15.8925C17.4554 14.3297 18.3334 12.2101 18.3334 9.99996C18.3334 8.90561 18.1179 7.82198 17.6991 6.81093C17.2803 5.79988 16.6665 4.88122 15.8926 4.1074C15.1188 3.33358 14.2002 2.71975 13.1891 2.30096C12.1781 1.88217 11.0944 1.66663 10.0001 1.66663Z" fill="#369FFF"/>
</svg>
