<svg width="17" height="18" viewBox="0 0 17 18" fill="none" xmlns="http://www.w3.org/2000/svg">
<path d="M11.3014 2.84138C11.3013 2.20405 11.5132 1.58699 11.8998 1.09815C12.2865 0.609313 12.8234 0.279828 13.4166 0.167343C14.0097 0.0548573 14.6214 0.166535 15.1446 0.482836C15.6678 0.799137 16.0692 1.29992 16.2785 1.89757C16.4878 2.49522 16.4917 3.15168 16.2896 3.75209C16.0875 4.3525 15.6922 4.85864 15.1728 5.18194C14.6535 5.50525 14.0432 5.62513 13.4487 5.52062C12.8542 5.41612 12.3134 5.09387 11.9209 4.61027L5.01886 8.00027C5.17754 8.53206 5.17754 9.10263 5.01886 9.63442L11.9209 13.0244C12.3358 12.5141 12.9151 12.1849 13.5465 12.1005C14.1778 12.0161 14.8163 12.1826 15.3382 12.5677C15.8601 12.9529 16.2283 13.5292 16.3713 14.185C16.5143 14.8408 16.422 15.5294 16.1123 16.1173C15.8026 16.7053 15.2975 17.1507 14.695 17.3673C14.0924 17.5838 13.4353 17.5561 12.851 17.2895C12.2667 17.0229 11.7967 16.5364 11.5323 15.9243C11.2678 15.3121 11.2276 14.6179 11.4195 13.9762L4.51749 10.5862C4.17582 11.0073 3.72039 11.3077 3.21247 11.4469C2.70456 11.586 2.16852 11.5574 1.67647 11.3647C1.18442 11.1721 0.759969 10.8246 0.460207 10.3692C0.160445 9.91382 -0.000244141 9.37223 -0.000244141 8.81734C-0.000244141 8.26245 0.160445 7.72087 0.460207 7.26545C0.759969 6.81004 1.18442 6.46263 1.67647 6.26998C2.16852 6.07732 2.70456 6.04865 3.21247 6.18783C3.72039 6.327 4.17582 6.62735 4.51749 7.04846L11.4195 3.65846C11.341 3.39407 11.3011 3.11852 11.3014 2.84138Z" fill="#369FFF"/>
</svg>
