<svg width="17" height="18" viewBox="0 0 17 18" fill="none" xmlns="http://www.w3.org/2000/svg">
<path d="M11.3016 2.71669C11.3016 2.07936 11.5134 1.4623 11.9001 0.973457C12.2867 0.484618 12.8236 0.155133 13.4168 0.0426479C14.01 -0.0698375 14.6217 0.0418398 15.1449 0.358141C15.668 0.674442 16.0694 1.17523 16.2787 1.77287C16.488 2.37052 16.492 3.02698 16.2899 3.62739C16.0877 4.22781 15.6924 4.73394 15.1731 5.05725C14.6537 5.38055 14.0434 5.50044 13.449 5.39593C12.8545 5.29142 12.3137 4.96918 11.9212 4.48557L5.01911 7.87557C5.17778 8.40737 5.17778 8.97793 5.01911 9.50973L11.9212 12.8997C12.3361 12.3894 12.9153 12.0602 13.5467 11.9758C14.1781 11.8914 14.8166 12.0579 15.3385 12.443C15.8604 12.8282 16.2285 13.4045 16.3715 14.0603C16.5145 14.7161 16.4222 15.4047 16.1125 15.9926C15.8028 16.5806 15.2978 17.026 14.6952 17.2426C14.0927 17.4591 13.4356 17.4314 12.8512 17.1648C12.2669 16.8982 11.797 16.4117 11.5325 15.7996C11.268 15.1874 11.2279 14.4932 11.4198 13.8515L4.51774 10.4615C4.17606 10.8826 3.72063 11.183 3.21272 11.3222C2.7048 11.4613 2.16876 11.4327 1.67672 11.24C1.18467 11.0474 0.760213 10.7 0.460451 10.2445C0.160689 9.78912 0 9.24754 0 8.69265C0 8.13776 0.160689 7.59618 0.460451 7.14076C0.760213 6.68534 1.18467 6.33794 1.67672 6.14528C2.16876 5.95262 2.7048 5.92396 3.21272 6.06313C3.72063 6.20231 4.17606 6.50265 4.51774 6.92376L11.4198 3.53376C11.3412 3.26937 11.3014 2.99383 11.3016 2.71669Z" fill="black"/>
</svg>
