<svg width="27" height="23" viewBox="0 0 27 23" fill="none" xmlns="http://www.w3.org/2000/svg">
<path d="M23.7232 19.1396H17.7652C16.8338 19.1396 16.1241 18.3491 16.2424 17.4579L16.819 13.232C17.0703 11.3347 18.7409 9.91171 20.7072 9.91171C22.6439 9.91171 24.2998 11.2916 24.5807 13.1602L25.2312 17.4292C25.379 18.3347 24.6546 19.1396 23.7232 19.1396Z" fill="white" stroke="#369FFF" stroke-width="2" stroke-miterlimit="10"/>
<path d="M20.7369 7.98563C22.1086 7.98563 23.2206 6.90449 23.2206 5.57084C23.2206 4.23719 22.1086 3.15606 20.7369 3.15606C19.3652 3.15606 18.2532 4.23719 18.2532 5.57084C18.2532 6.90449 19.3652 7.98563 20.7369 7.98563Z" fill="white" stroke="#369FFF" stroke-width="2" stroke-miterlimit="10"/>
<path d="M9.23489 19.1396H3.27688C2.34548 19.1396 1.63584 18.3491 1.75411 17.4579L2.3307 13.232C2.58203 11.3347 4.25263 9.91171 6.21893 9.91171C8.15565 9.91171 9.81148 11.2916 10.0924 13.1602L10.7429 17.4292C10.8907 18.3347 10.1663 19.1396 9.23489 19.1396Z" fill="white" stroke="#369FFF" stroke-width="2" stroke-miterlimit="10"/>
<path d="M6.24839 7.98563C7.62012 7.98563 8.73212 6.90449 8.73212 5.57084C8.73212 4.23719 7.62012 3.15606 6.24839 3.15606C4.87666 3.15606 3.76465 4.23719 3.76465 5.57084C3.76465 6.90449 4.87666 7.98563 6.24839 7.98563Z" fill="white" stroke="#369FFF" stroke-width="2" stroke-miterlimit="10"/>
<path d="M17.1294 21.2813H9.84084C8.70246 21.2813 7.8302 20.3183 7.97804 19.2259L8.68768 14.0513C8.99815 11.7372 11.0384 9.99795 13.4482 9.99795C15.8284 9.99795 17.8391 11.6941 18.1939 13.9795L18.9922 19.1971C19.1549 20.2895 18.2678 21.2813 17.1294 21.2813Z" fill="white" stroke="#369FFF" stroke-width="2" stroke-miterlimit="10"/>
<path d="M13.478 7.61191C15.1519 7.61191 16.5088 6.29267 16.5088 4.6653C16.5088 3.03793 15.1519 1.71869 13.478 1.71869C11.8042 1.71869 10.4473 3.03793 10.4473 4.6653C10.4473 6.29267 11.8042 7.61191 13.478 7.61191Z" fill="white" stroke="#369FFF" stroke-width="2" stroke-miterlimit="10"/>
</svg>
